<svg width="100%" height="100%" viewBox="0 0 100 100" fill="none" xmlns="http://www.w3.org/2000/svg">
  <defs>
    <filter id="logo-glow-cyan" x="-30%" y="-30%" width="160%" height="160%">
      <feGaussianBlur stdDeviation="2.5" result="blur" />
      <feMerge>
        <feMergeNode in="blur" />
        <feMergeNode in="SourceGraphic" />
      </feMerge>
    </filter>
    <filter id="logo-glow-violet" x="-30%" y="-30%" width="160%" height="160%">
      <feGaussianBlur stdDeviation="3" result="blur" />
      <feMerge>
        <feMergeNode in="blur" />
        <feMergeNode in="SourceGraphic" />
      </feMerge>
    </filter>
    
    <linearGradient id="violet-grad" x1="0%" y1="0%" x2="100%" y2="100%">
      <stop offset="0%" stop-color="#d946ef" />
      <stop offset="100%" stop-color="#a855f7" />
    </linearGradient>
    <linearGradient id="cyan-grad" x1="0%" y1="50%" x2="100%" y2="50%">
      <stop offset="0%" stop-color="#22d3ee" />
      <stop offset="100%" stop-color="#06b6d4" />
    </linearGradient>
  </defs>

  <circle
    cx="50"
    cy="50"
    r="44"
    stroke="url(#violet-grad)"
    stroke-width="0.75"
    stroke-dasharray="4 8 20 8"
    opacity="0.3"
  />

  <path
    d="M 87.2,42.1 A 38,38 0 1,0 87.2,57.9"
    stroke="url(#violet-grad)"
    stroke-width="5.5"
    stroke-linecap="round"
    filter="url(#logo-glow-violet)"
  />

  <path
    d="M 79.0,42.2 A 30,30 0 1,0 79.0,57.8"
    stroke="url(#violet-grad)"
    stroke-width="1.2"
    opacity="0.55"
  />

  <line
    x1="70.5"
    y1="70.5"
    x2="88"
    y2="88"
    stroke="url(#violet-grad)"
    stroke-width="6"
    stroke-linecap="round"
    filter="url(#logo-glow-violet)"
  />
  
  <line x1="82" y1="46" x2="88" y2="46" stroke="url(#violet-grad)" stroke-width="1" opacity="0.7" />
  <line x1="82" y1="54" x2="88" y2="54" stroke="url(#violet-grad)" stroke-width="1" opacity="0.7" />

  <path
    d="M 12,50 L 35,50 L 39,54 L 43,46 L 47,62 L 51,38 L 55,60 L 59,48 L 63,52 L 67,49 L 71,51 L 76,50 L 88,50"
    stroke="#00f2fe"
    stroke-width="2.5"
    stroke-linecap="round"
    stroke-linejoin="round"
    filter="url(#logo-glow-cyan)"
  />
  <path
    d="M 12,50 L 35,50 L 39,54 L 43,46 L 47,62 L 51,38 L 55,60 L 59,48 L 63,52 L 67,49 L 71,51 L 76,50 L 88,50"
    stroke="#e0fbfc"
    stroke-width="1.0"
    stroke-linecap="round"
    stroke-linejoin="round"
  />

  <circle cx="35" cy="50" r="1.5" fill="#e0fbfc" filter="url(#logo-glow-cyan)" />
  <circle cx="47" cy="62" r="1.5" fill="#e0fbfc" filter="url(#logo-glow-cyan)" />
  <circle cx="51" cy="38" r="1.5" fill="#e0fbfc" filter="url(#logo-glow-cyan)" />
  <circle cx="55" cy="60" r="1.5" fill="#e0fbfc" filter="url(#logo-glow-cyan)" />
  <circle cx="76" cy="50" r="1.5" fill="#e0fbfc" filter="url(#logo-glow-cyan)" />
</svg>